<?xml version="1.0" encoding="UTF-8"?>
<svg width="303.56mm" height="36.741mm" version="1.1" viewBox="0 0 303.56 36.741" xmlns="http://www.w3.org/2000/svg">
 <g transform="translate(56.531 -146.43)">
  <g transform="matrix(.29544 0 0 .23695 -79.7 415.17)" fill="#6d4488" stroke-width="3.4974" style="font-feature-settings:normal;font-variant-caps:normal;font-variant-ligatures:normal;font-variant-numeric:normal">
   <path d="m736.93-1111.3h28.32q28.32 0 28.32 28.32v75.521q0 28.32-28.32 28.32h-28.32zm18.88 113.28h9.4401q9.4401 0 9.4401-9.4402v-75.521q0-9.4401-9.4401-9.4401h-9.4401z" style="font-feature-settings:normal;font-variant-caps:normal;font-variant-ligatures:normal;font-variant-numeric:normal"/>
   <path d="m864.51-1016.9h10.856l3.3984 18.88h-17.653l-3.304 18.88h-19.163l23.223-132.16h24.355l23.223 132.16h-19.163l-16.237-91.947z" style="font-feature-settings:normal;font-variant-caps:normal;font-variant-ligatures:normal;font-variant-numeric:normal"/>
   <path d="m982.1-1092.4v113.28h-18.88v-113.28h-18.88v-18.88h56.641v18.88z" style="font-feature-settings:normal;font-variant-caps:normal;font-variant-ligatures:normal;font-variant-numeric:normal"/>
   <path d="m1061-1016.9h10.856l3.3984 18.88h-17.653l-3.304 18.88h-19.164l23.223-132.16h24.356l23.223 132.16h-19.163l-16.237-91.947z" style="font-feature-settings:normal;font-variant-caps:normal;font-variant-ligatures:normal;font-variant-numeric:normal"/>
  </g>
  <g transform="matrix(.26458 0 0 .26458 -69.76 7.6701)" fill="#8cbe69" stroke-width="1.3333" style="font-feature-settings:normal;font-variant-caps:normal;font-variant-ligatures:normal;font-variant-numeric:normal" aria-label="cannabis">
   <path d="m50 615.08q0-10.208 3.168-19.008 3.168-8.976 8.976-15.488 5.984-6.512 14.432-10.208t19.008-3.696q13.024 0 24.64 4.752l-4.576 17.424q-3.696-1.584-8.448-2.64-4.576-1.056-9.856-1.056-12.496 0-19.008 7.92-6.512 7.744-6.512 22 0 13.728 6.16 21.824 6.16 7.92 20.768 7.92 5.456 0 10.736-1.056t9.152-2.64l2.992 17.6q-3.52 1.76-10.736 3.168-7.04 1.408-14.608 1.408-11.792 0-20.592-3.52-8.624-3.696-14.432-10.032-5.632-6.512-8.448-15.312-2.816-8.976-2.816-19.36z" style="font-feature-settings:normal;font-variant-caps:normal;font-variant-ligatures:normal;font-variant-numeric:normal"/>
   <path d="m170.68 646.05q9.856 0 14.96-1.056v-23.584q-1.76-0.528-5.104-1.056t-7.392-0.528q-3.52 0-7.216 0.528-3.52 0.528-6.512 1.936-2.816 1.408-4.576 4.048-1.76 2.464-1.76 6.336 0 7.568 4.752 10.56 4.752 2.816 12.848 2.816zm-1.76-79.376q10.56 0 17.776 2.64t11.44 7.392q4.4 4.752 6.16 11.616 1.936 6.688 1.936 14.784v55.792q-4.928 1.056-14.96 2.464-9.856 1.584-22.352 1.584-8.272 0-15.136-1.584t-11.792-5.104q-4.752-3.52-7.568-9.152-2.64-5.632-2.64-13.904 0-7.92 2.992-13.376 3.168-5.456 8.448-8.8 5.28-3.52 12.144-4.928 7.04-1.584 14.608-1.584 3.52 0 7.392 0.528 3.872 0.352 8.272 1.408v-3.52q0-3.696-0.88-7.04t-3.168-5.808q-2.112-2.64-5.808-4.048-3.52-1.408-8.976-1.408-7.392 0-13.552 1.056t-10.032 2.464l-2.64-17.248q4.048-1.408 11.792-2.816t16.544-1.408z" style="font-feature-settings:normal;font-variant-caps:normal;font-variant-ligatures:normal;font-variant-numeric:normal"/>
   <path d="m232.14 571.96q6.16-1.76 16.016-3.344t21.824-1.584q11.264 0 18.832 3.168 7.568 2.992 11.968 8.624 4.576 5.456 6.336 13.376 1.936 7.744 1.936 17.072v51.744h-21.296v-48.4q0-7.392-1.056-12.496-0.88-5.28-3.168-8.448-2.112-3.344-5.984-4.752-3.696-1.584-9.152-1.584-4.048 0-8.448 0.528t-6.512 0.88v74.272h-21.296z" style="font-feature-settings:normal;font-variant-caps:normal;font-variant-ligatures:normal;font-variant-numeric:normal"/>
   <path d="m335.26 571.96q6.16-1.76 16.016-3.344t21.824-1.584q11.264 0 18.832 3.168 7.568 2.992 11.968 8.624 4.576 5.456 6.336 13.376 1.936 7.744 1.936 17.072v51.744h-21.296v-48.4q0-7.392-1.056-12.496-0.88-5.28-3.168-8.448-2.112-3.344-5.984-4.752-3.696-1.584-9.152-1.584-4.048 0-8.448 0.528t-6.512 0.88v74.272h-21.296z" style="font-feature-settings:normal;font-variant-caps:normal;font-variant-ligatures:normal;font-variant-numeric:normal"/>
   <path d="m470.77 646.05q9.856 0 14.96-1.056v-23.584q-1.76-0.528-5.104-1.056t-7.392-0.528q-3.52 0-7.216 0.528-3.52 0.528-6.512 1.936-2.816 1.408-4.576 4.048-1.76 2.464-1.76 6.336 0 7.568 4.752 10.56 4.752 2.816 12.848 2.816zm-1.76-79.376q10.56 0 17.776 2.64t11.44 7.392q4.4 4.752 6.16 11.616 1.936 6.688 1.936 14.784v55.792q-4.928 1.056-14.96 2.464-9.856 1.584-22.352 1.584-8.272 0-15.136-1.584t-11.792-5.104q-4.752-3.52-7.568-9.152-2.64-5.632-2.64-13.904 0-7.92 2.992-13.376 3.168-5.456 8.448-8.8 5.28-3.52 12.144-4.928 7.04-1.584 14.608-1.584 3.52 0 7.392 0.528 3.872 0.352 8.272 1.408v-3.52q0-3.696-0.88-7.04t-3.168-5.808q-2.112-2.64-5.808-4.048-3.52-1.408-8.976-1.408-7.392 0-13.552 1.056t-10.032 2.464l-2.64-17.248q4.048-1.408 11.792-2.816t16.544-1.408z" style="font-feature-settings:normal;font-variant-caps:normal;font-variant-ligatures:normal;font-variant-numeric:normal"/>
   <path d="m593.3 614.72q0-13.552-5.456-21.472-5.28-7.92-16.896-7.92-5.28 0-10.032 1.584-4.576 1.584-7.392 3.52v52.976q2.288 0.528 5.808 1.056 3.696 0.352 8.8 0.352 11.792 0 18.48-7.92 6.688-8.096 6.688-22.176zm21.824 0.352q0 11.088-3.344 20.064-3.168 8.8-9.328 15.136-5.984 6.336-14.608 9.68t-19.536 3.344q-10.56 0-20.24-1.584-9.504-1.584-15.84-3.52v-130.24l21.296-3.52v47.696q3.696-1.936 8.976-3.52 5.456-1.584 11.968-1.584 9.68 0 17.248 3.52 7.744 3.344 12.848 9.68t7.744 15.312q2.816 8.8 2.816 19.536z" style="font-feature-settings:normal;font-variant-caps:normal;font-variant-ligatures:normal;font-variant-numeric:normal"/>
   <path d="m658.54 661.01h-21.296v-92.048h21.296zm2.288-118.98q0 5.984-3.872 9.504t-9.152 3.52q-5.456 0-9.328-3.52t-3.872-9.504q0-6.16 3.872-9.68t9.328-3.52q5.28 0 9.152 3.52t3.872 9.68z" style="font-feature-settings:normal;font-variant-caps:normal;font-variant-ligatures:normal;font-variant-numeric:normal"/>
   <path d="m708.6 645.7q8.448 0 12.32-1.936 3.872-2.112 3.872-7.04 0-4.576-4.224-7.568-4.048-2.992-13.552-6.512-5.808-2.112-10.736-4.4-4.752-2.464-8.272-5.632t-5.632-7.568q-1.936-4.576-1.936-11.088 0-12.672 9.328-19.888 9.328-7.392 25.344-7.392 8.096 0 15.488 1.584 7.392 1.408 11.088 2.816l-3.872 17.248q-3.52-1.584-8.976-2.816-5.456-1.408-12.672-1.408-6.512 0-10.56 2.288-4.048 2.112-4.048 6.688 0 2.288 0.704 4.048 0.88 1.76 2.816 3.344 1.936 1.408 5.104 2.992 3.168 1.408 7.744 2.992 7.568 2.816 12.848 5.632 5.28 2.64 8.624 6.16 3.52 3.344 5.104 7.744t1.584 10.56q0 13.2-9.856 20.064-9.68 6.688-27.808 6.688-12.144 0-19.536-2.112-7.392-1.936-10.384-3.168l3.696-17.776q4.752 1.936 11.264 3.696 6.688 1.76 15.136 1.76z" style="font-feature-settings:normal;font-variant-caps:normal;font-variant-ligatures:normal;font-variant-numeric:normal"/>
  </g>
 </g>
</svg>
