<?xml version="1.0" encoding="UTF-8" standalone="no"?>
<svg
   xmlns:dc="http://purl.org/dc/elements/1.1/"
   xmlns:cc="http://creativecommons.org/ns#"
   xmlns:rdf="http://www.w3.org/1999/02/22-rdf-syntax-ns#"
   xmlns:svg="http://www.w3.org/2000/svg"
   xmlns="http://www.w3.org/2000/svg"
   xmlns:sodipodi="http://sodipodi.sourceforge.net/DTD/sodipodi-0.dtd"
   xmlns:inkscape="http://www.inkscape.org/namespaces/inkscape"
   width="16"
   height="16"
   viewBox="0 0 4.2333334 4.2333334"
   version="1.1"
   id="svg936"
   inkscape:version="1.0.1 (3bc2e813f5, 2020-09-07)"
   sodipodi:docname="cannabis-data-logo-16.svg"
   inkscape:export-filename="C:\Users\keega\Documents\cannlytics\cannabisdata\dashboard\static\dashboard\images\logos\cannabis-data-logo-16.png"
   inkscape:export-xdpi="96"
   inkscape:export-ydpi="96">
  <defs
     id="defs930">
    <radialGradient
       fx="0"
       fy="0"
       cx="0"
       cy="0"
       r="1"
       gradientUnits="userSpaceOnUse"
       gradientTransform="matrix(176.60487,0,0,-176.60487,961.01025,620.81378)"
       spreadMethod="pad"
       id="radialGradient55">
      <stop
         style="stop-opacity:1;stop-color:#8cbe69"
         offset="0"
         id="stop51" />
      <stop
         style="stop-opacity:1;stop-color:#6d4488"
         offset="1"
         id="stop53" />
    </radialGradient>
  </defs>
  <sodipodi:namedview
     id="base"
     pagecolor="#ffffff"
     bordercolor="#666666"
     borderopacity="1.0"
     inkscape:pageopacity="0.0"
     inkscape:pageshadow="2"
     inkscape:zoom="31.678384"
     inkscape:cx="6.5139839"
     inkscape:cy="8.3545408"
     inkscape:document-units="mm"
     inkscape:current-layer="layer1"
     inkscape:document-rotation="0"
     showgrid="false"
     units="px"
     inkscape:window-width="1920"
     inkscape:window-height="1094"
     inkscape:window-x="-11"
     inkscape:window-y="-11"
     inkscape:window-maximized="1" />
  <metadata
     id="metadata933">
    <rdf:RDF>
      <cc:Work
         rdf:about="">
        <dc:format>image/svg+xml</dc:format>
        <dc:type
           rdf:resource="http://purl.org/dc/dcmitype/StillImage" />
        <dc:title></dc:title>
      </cc:Work>
    </rdf:RDF>
  </metadata>
  <g
     inkscape:label="Layer 1"
     inkscape:groupmode="layer"
     id="layer1">
    <g
       id="g39"
       style="display:inline;stroke-width:30.8644"
       transform="matrix(0.01142995,0,0,-0.01142995,-8.8676353,9.2125396)">
      <g
         id="g41"
         style="stroke-width:30.8644">
        <g
           id="g47"
           style="stroke-width:30.8644">
          <g
             id="g49"
             style="stroke-width:30.8644">
            <path
               d="m 960.322,805.871 c -0.481,-1.267 -1.007,-2.518 -1.434,-3.803 v 0 c -1.944,-5.846 -3.421,-11.892 -5.866,-17.52 v 0 c -7.444,-17.129 -15.326,-34.084 -20.468,-52.095 v 0 c -2.566,-8.984 -4.991,-18.051 -6.701,-27.226 v 0 c -1.538,-8.253 -2.235,-16.687 -2.889,-25.075 v 0 c -0.591,-7.576 -1.128,-15.219 -0.784,-22.792 v 0 c 0.63,-13.896 1.592,-27.805 4.942,-41.396 v 0 c 1.953,-7.925 3.766,-15.892 6.012,-23.733 v 0 c 4.568,-15.943 10.619,-31.332 17.973,-46.206 v 0 c 0.402,-0.815 0.345,-1.856 0.582,-3.265 v 0 c -26.089,18.895 -51.629,37.392 -77.167,55.888 v 0 c -0.212,-0.286 -0.425,-0.571 -0.637,-0.857 v 0 c 6.07,-4.911 12.127,-9.838 18.216,-14.727 v 0 c 6.091,-4.89 12.196,-9.761 18.326,-14.603 v 0 c 6.234,-4.923 12.584,-9.701 18.735,-14.725 v 0 c 5.847,-4.777 12.331,-8.833 17.404,-14.594 v 0 c -30.716,5.668 -58.864,17.015 -83.14,36.57 v 0 c -22.635,18.233 -39.147,41.364 -52.003,68.374 v 0 c 50.621,-10.113 91.158,-34.169 119.812,-76.963 v 0 c -1.215,4.866 -2.693,9.495 -4.15,14.132 v 0 c -0.867,2.76 -0.944,6.196 -2.684,8.178 v 0 c -5.933,6.757 -12.184,13.29 -18.797,19.382 v 0 c -12.088,11.135 -25.913,19.879 -40.79,26.709 v 0 c -9.621,4.418 -19.721,7.854 -29.759,11.28 v 0 c -6.732,2.297 -13.775,3.663 -20.602,5.705 v 0 c -6.464,1.934 -12.827,4.207 -19.709,6.489 v 0 c -0.408,-0.662 -0.96,-1.557 -1.318,-2.138 v 0 c 3.429,-5.627 6.848,-10.667 9.695,-16.012 v 0 c 8.442,-15.847 17.069,-31.608 28.897,-45.217 v 0 c 7.344,-8.449 15.098,-16.647 23.436,-24.096 v 0 c 10.377,-9.271 22.046,-16.993 34.786,-22.675 v 0 c 11.166,-4.978 22.702,-9.144 34.145,-13.483 v 0 c 3.817,-1.447 7.853,-2.323 11.789,-3.46 v 0 c -0.044,-0.366 -0.088,-0.733 -0.133,-1.1 v 0 c -17.58,-0.918 -35.162,-1.836 -52.744,-2.754 v 0 c 0.007,-0.362 0.014,-0.724 0.021,-1.087 v 0 h 55.375 c -39.883,-18.086 -79.57,-17.547 -119.15,0.616 v 0 c 18.549,8.803 38.066,13.464 58.939,14.248 v 0 c -3.461,1.868 -6.765,3.159 -9.466,5.235 v 0 c -3.45,2.652 -7.047,1.975 -10.735,1.557 v 0 c -1.377,-0.156 -2.727,-0.597 -4.077,-0.953 v 0 c -7.892,-2.085 -15.885,-3.864 -23.645,-6.363 v 0 c -8.986,-2.894 -17.767,-6.424 -26.637,-9.682 v 0 c -2.791,-1.024 -5.579,-2.055 -8.585,-3.162 v 0 c 0.404,-1.452 0.674,-2.417 0.726,-2.605 v 0 c 8.715,-2.956 16.957,-5.251 24.791,-8.52 v 0 c 13.594,-5.675 27.651,-9.818 42.195,-11.217 v 0 c 11.617,-1.118 23.513,-1.027 35.14,0.067 v 0 c 14.681,1.382 28.859,5.604 42.445,11.54 v 0 c 2.781,1.214 5.649,2.229 8.477,3.336 v 0 c 0.198,-0.281 0.395,-0.563 0.592,-0.844 v 0 c -4.552,-6.15 -9.106,-12.299 -13.659,-18.448 v 0 c 0.223,-0.17 0.446,-0.341 0.67,-0.511 v 0 c 4.723,5.45 9.444,10.899 14.351,16.56 v 0 c 2.173,-12.299 -31.503,-49.782 -44.122,-49.299 v 0 c 5.71,14.288 14.202,26.431 25.88,36.472 v 0 c -3.765,-0.618 -7.285,-1.885 -10.901,-2.289 v 0 c -3.413,-0.382 -5.417,-2.173 -7.41,-4.621 v 0 c -10.82,-13.283 -17.053,-28.81 -22.268,-45.066 v 0 c 0.463,-0.503 1,-1.088 1.545,-1.682 v 0 c 13.691,6.544 27.421,12.748 38.895,22.85 v 0 c 11.481,10.107 19.871,22.473 26.576,36.21 v 0 c 0.495,-0.818 0.73,-1.477 0.685,-2.116 v 0 c -0.628,-9.193 -6.216,-71.832 -6.237,-72.661 v 0 h 15.539 c -0.555,1.15 -6.945,71.34 -6.945,73.971 v 0 l 1.075,0.717 c 12.299,-29.886 35.904,-47.115 65.284,-58.831 v 0 c 0.172,1.013 0.844,2.35 0.498,3.326 v 0 c -4.798,13.556 -9.603,27.15 -18.435,38.756 v 0 c -2.531,3.328 -4.188,7.725 -9.047,8.772 v 0 c -4.204,0.905 -8.382,1.934 -13.31,3.079 v 0 c 15.269,-14.904 27.48,-32.896 26.011,-38.007 v 0 c -22.006,11.883 -46.314,39.928 -43.809,50.912 v 0 c 5.539,-6.428 10.967,-12.728 16.393,-19.028 v 0 c 0.198,0.162 0.394,0.325 0.59,0.488 v 0 c -5.149,6.894 -10.298,13.788 -15.448,20.682 v 0 c 0.182,0.234 0.364,0.468 0.544,0.703 v 0 c 1.366,-0.536 2.737,-1.06 4.097,-1.61 v 0 c 4.324,-1.746 8.527,-3.919 12.99,-5.168 v 0 c 9.787,-2.737 19.593,-5.747 29.599,-7.263 v 0 c 9.905,-1.501 20.064,-1.639 30.119,-1.758 v 0 c 9.991,-0.118 19.767,1.916 29.351,4.727 v 0 c 5.638,1.653 11.307,3.224 16.886,5.06 v 0 c 9.288,3.058 18.527,6.263 27.751,9.505 v 0 c 1.226,0.43 2.248,1.438 4.227,2.75 v 0 c -2.205,1.216 -3.37,2.075 -4.676,2.532 v 0 c -2.614,0.912 -5.362,1.454 -7.957,2.414 v 0 c -8.278,3.067 -16.471,6.372 -24.773,9.37 v 0 c -10.815,3.904 -21.983,6.35 -32.896,7.607 v 0 c -4.935,-2.637 -9.385,-5.016 -14.055,-7.511 v 0 c 3.666,-0.221 7.056,-0.338 10.428,-0.644 v 0 c 16.2,-1.471 31.556,-6.377 46.803,-11.668 v 0 c 1.028,-0.356 1.771,-1.535 2.933,-2.595 v 0 c -55.6,-23.295 -96.775,-11.238 -120.619,0.32 v 0 h 55.023 c 0,0.27 -0.01,0.538 -0.011,0.807 v 0 c -17.448,0.907 -34.896,1.814 -52.344,2.72 v 0 c -0.037,0.315 -0.073,0.629 -0.109,0.944 v 0 c 0.658,0.291 1.292,0.668 1.978,0.861 v 0 c 2.929,0.82 5.884,1.547 8.81,2.378 v 0 c 17.513,4.975 34.087,12.132 49.62,21.627 v 0 c 17.108,10.458 31.718,23.724 44.357,39.296 v 0 c 11.106,13.684 19.966,28.716 28.127,44.255 v 0 c 3.075,5.857 6.88,11.332 10.288,16.875 v 0 c -1.314,2.482 -3.079,2.323 -5.132,1.274 v 0 c -2.076,-1.059 -4.134,-2.268 -6.345,-2.917 v 0 c -7.392,-2.171 -14.92,-3.891 -22.262,-6.211 v 0 c -9.772,-3.089 -19.542,-6.262 -29.078,-10.002 v 0 c -7.261,-2.847 -14.42,-6.177 -21.156,-10.097 v 0 c -12.014,-6.994 -23.538,-14.831 -33.318,-24.827 v 0 c -6.177,-6.314 -13.852,-11.508 -15.97,-21.075 v 0 c -1.172,-5.291 -3.172,-10.398 -4.798,-15.587 v 0 c 14.342,19.971 30.971,37.444 51.946,50.445 v 0 c 20.866,12.936 43.421,21.358 68.185,26.068 v 0 c -13.571,-27.693 -30.571,-51.343 -54.202,-69.86 v 0 c -23.697,-18.57 -50.827,-29.189 -79.827,-35.555 v 0 c -0.242,0.389 -0.484,0.779 -0.726,1.168 v 0 c 24.042,19.049 48.083,38.099 72.125,57.148 v 0 c -0.272,0.345 -0.546,0.689 -0.819,1.034 v 0 c -25.584,-18.568 -51.17,-37.136 -76.755,-55.705 v 0 c -0.233,0.192 -0.466,0.383 -0.699,0.575 v 0 c 0.367,1.036 0.684,2.094 1.107,3.106 v 0 c 4.319,10.323 9.016,20.505 12.897,30.988 v 0 c 5.3,14.312 9.557,28.97 11.772,44.127 v 0 c 1.437,9.83 3.313,19.651 3.861,29.538 v 0 c 0.541,9.805 0.117,19.725 -0.712,29.524 v 0 c -0.875,10.346 -2.357,20.678 -4.236,30.894 v 0 c -3.549,19.307 -9.916,37.777 -17.5,55.862 v 0 c -4.849,11.566 -9.336,23.285 -13.975,34.939 v 0 c -0.544,1.369 -1.021,2.764 -1.529,4.147 v 0 c -0.376,-0.043 -0.752,-0.086 -1.127,-0.129 M 931.05,667.417 c 0.84,40.029 12.077,77.314 29.898,113.332 v 0 c 38.03,-75.696 40.109,-151.314 3.276,-227.469 v 0 c -0.812,44.012 -1.625,88.024 -2.436,132.036 v 0 c -0.282,0.011 -0.566,0.022 -0.847,0.033 v 0 c -0.281,-2.764 -0.735,-5.523 -0.813,-8.293 v 0 c -0.513,-18.58 -1.042,-37.16 -1.379,-55.745 v 0 c -0.389,-21.495 -0.585,-42.994 -0.874,-64.493 v 0 c -0.014,-1 -0.129,-1.997 -0.588,-3.032 v 0 c -16.904,36.025 -27.078,73.572 -26.237,113.631"
               style="fill:url(#radialGradient55);stroke:none;stroke-width:30.8644"
               id="path57"
               inkscape:connector-curvature="0" />
          </g>
        </g>
      </g>
    </g>
  </g>
</svg>
