<?xml version="1.0" encoding="UTF-8" standalone="no"?>
<svg
   xmlns:dc="http://purl.org/dc/elements/1.1/"
   xmlns:cc="http://creativecommons.org/ns#"
   xmlns:rdf="http://www.w3.org/1999/02/22-rdf-syntax-ns#"
   xmlns:svg="http://www.w3.org/2000/svg"
   xmlns="http://www.w3.org/2000/svg"
   xmlns:sodipodi="http://sodipodi.sourceforge.net/DTD/sodipodi-0.dtd"
   xmlns:inkscape="http://www.inkscape.org/namespaces/inkscape"
   width="303.56107mm"
   height="36.7411mm"
   viewBox="0 0 303.56107 36.7411"
   version="1.1"
   id="svg934"
   inkscape:version="1.0.1 (3bc2e813f5, 2020-09-07)"
   sodipodi:docname="cannabis-data-text.svg"
   inkscape:export-filename="C:\Users\keega\Documents\cannlytics\cannabisdata\dashboard\static\dashboard\images\logos\cannabis-data-text.png"
   inkscape:export-xdpi="96"
   inkscape:export-ydpi="96">
  <defs
     id="defs928" />
  <sodipodi:namedview
     id="base"
     pagecolor="#ffffff"
     bordercolor="#666666"
     borderopacity="1.0"
     inkscape:pageopacity="0.0"
     inkscape:pageshadow="2"
     inkscape:zoom="0.7"
     inkscape:cx="137.37146"
     inkscape:cy="51.264134"
     inkscape:document-units="mm"
     inkscape:current-layer="layer1"
     inkscape:document-rotation="0"
     showgrid="false"
     inkscape:window-width="1920"
     inkscape:window-height="1094"
     inkscape:window-x="-11"
     inkscape:window-y="-11"
     inkscape:window-maximized="1" />
  <metadata
     id="metadata931">
    <rdf:RDF>
      <cc:Work
         rdf:about="">
        <dc:format>image/svg+xml</dc:format>
        <dc:type
           rdf:resource="http://purl.org/dc/dcmitype/StillImage" />
        <dc:title />
      </cc:Work>
    </rdf:RDF>
  </metadata>
  <g
     inkscape:label="Layer 1"
     inkscape:groupmode="layer"
     id="layer1"
     transform="translate(56.530536,-146.42707)">
    <g
       id="g904"
       transform="matrix(0.29544166,0,0,0.2369481,-79.70002,415.16912)"
       style="font-style:normal;font-variant:normal;font-weight:normal;font-stretch:normal;font-size:266.667px;font-family:'Avenged For Yourself';-inkscape-font-specification:'Avenged For Yourself, Normal';font-variant-ligatures:normal;font-variant-caps:normal;font-variant-numeric:normal;font-feature-settings:normal;text-align:start;letter-spacing:0px;writing-mode:lr-tb;text-anchor:start;display:inline;fill:#6d4488;fill-opacity:1;fill-rule:nonzero;stroke:none;stroke-width:3.49745">
      <path
         d="m 736.92834,-1111.2829 h 28.32031 q 28.32031,0 28.32031,28.3203 v 75.5208 q 0,28.32035 -28.32031,28.32035 h -28.32031 z m 18.88021,113.28125 h 9.4401 q 9.4401,0 9.4401,-9.44015 v -75.5208 q 0,-9.4401 -9.4401,-9.4401 h -9.4401 z"
         style="font-style:normal;font-variant:normal;font-weight:normal;font-stretch:normal;font-size:193.333px;font-family:'Avenged For Yourself';-inkscape-font-specification:'Avenged For Yourself, Normal';font-variant-ligatures:normal;font-variant-caps:normal;font-variant-numeric:normal;font-feature-settings:normal;text-align:start;letter-spacing:38px;writing-mode:lr-tb;text-anchor:start;stroke-width:3.49745"
         id="path211" />
      <path
         d="m 864.51492,-1016.8819 h 10.85612 l 3.39844,18.88025 h -17.65299 l -3.30404,18.8802 h -19.16341 l 23.22265,-132.16145 h 24.35547 l 23.22266,132.16145 h -19.16341 l -16.23698,-91.94665 z"
         style="font-style:normal;font-variant:normal;font-weight:normal;font-stretch:normal;font-size:193.333px;font-family:'Avenged For Yourself';-inkscape-font-specification:'Avenged For Yourself, Normal';font-variant-ligatures:normal;font-variant-caps:normal;font-variant-numeric:normal;font-feature-settings:normal;text-align:start;letter-spacing:38px;writing-mode:lr-tb;text-anchor:start;stroke-width:3.49745"
         id="path213" />
      <path
         d="m 982.095,-1092.4027 v 113.28125 h -18.8802 v -113.28125 h -18.88021 v -18.8802 h 56.64061 v 18.8802 z"
         style="font-style:normal;font-variant:normal;font-weight:normal;font-stretch:normal;font-size:193.333px;font-family:'Avenged For Yourself';-inkscape-font-specification:'Avenged For Yourself, Normal';font-variant-ligatures:normal;font-variant-caps:normal;font-variant-numeric:normal;font-feature-settings:normal;text-align:start;letter-spacing:38px;writing-mode:lr-tb;text-anchor:start;stroke-width:3.49745"
         id="path215" />
      <path
         d="m 1060.9706,-1016.8819 h 10.8562 l 3.3984,18.88025 h -17.653 l -3.304,18.8802 h -19.1635 l 23.2227,-132.16145 h 24.3555 l 23.2226,132.16145 h -19.1634 l -16.237,-91.94665 z"
         style="font-style:normal;font-variant:normal;font-weight:normal;font-stretch:normal;font-size:193.333px;font-family:'Avenged For Yourself';-inkscape-font-specification:'Avenged For Yourself, Normal';font-variant-ligatures:normal;font-variant-caps:normal;font-variant-numeric:normal;font-feature-settings:normal;text-align:start;letter-spacing:38px;writing-mode:lr-tb;text-anchor:start;stroke-width:3.49745"
         id="path217" />
    </g>
    <g
       aria-label="cannabis"
       style="font-style:normal;font-variant:normal;font-weight:500;font-stretch:normal;font-size:85.3333px;font-family:Ubuntu;-inkscape-font-specification:'Ubuntu, Medium';font-variant-ligatures:normal;font-variant-caps:normal;font-variant-numeric:normal;font-feature-settings:normal;text-align:start;letter-spacing:0px;writing-mode:lr-tb;text-anchor:start;display:inline;fill:#8cbe69;fill-opacity:1;fill-rule:nonzero;stroke:none;stroke-width:1.33333"
       id="text61"
       transform="matrix(0.26458333,0,0,0.26458333,-69.759703,7.6701042)">
      <path
         d="m 50.000002,615.07578 q 0,-10.208 3.168,-19.008 3.168,-8.976 8.976,-15.488 5.984,-6.512 14.432,-10.208 8.448,-3.696 19.008,-3.696 13.023998,0 24.639998,4.752 l -4.576,17.424 q -3.696,-1.584 -8.448,-2.64 -4.576,-1.056 -9.855998,-1.056 -12.496,0 -19.008,7.92 -6.512,7.744 -6.512,22 0,13.728 6.16,21.824 6.16,7.92 20.768,7.92 5.455998,0 10.735998,-1.056 5.28,-1.056 9.152,-2.64 l 2.992,17.6 q -3.52,1.76 -10.736,3.168 -7.04,1.408 -14.607998,1.408 -11.792,0 -20.592,-3.52 -8.624,-3.696 -14.432,-10.032 -5.632,-6.512 -8.448,-15.312 -2.816,-8.976 -2.816,-19.36 z"
         style="font-style:normal;font-variant:normal;font-weight:500;font-stretch:normal;font-size:176px;font-family:Ubuntu;-inkscape-font-specification:'Ubuntu, Medium';font-variant-ligatures:normal;font-variant-caps:normal;font-variant-numeric:normal;font-feature-settings:normal;text-align:center;letter-spacing:0px;writing-mode:lr-tb;text-anchor:middle;stroke-width:1.33333"
         id="path194" />
      <path
         d="m 170.6755,646.05178 q 9.856,0 14.96,-1.056 v -23.584 q -1.76,-0.528 -5.104,-1.056 -3.344,-0.528 -7.392,-0.528 -3.52,0 -7.216,0.528 -3.52,0.528 -6.512,1.936 -2.816,1.408 -4.576,4.048 -1.76,2.464 -1.76,6.336 0,7.568 4.752,10.56 4.752,2.816 12.848,2.816 z m -1.76,-79.376 q 10.56,0 17.776,2.64 7.216,2.64 11.44,7.392 4.4,4.752 6.16,11.616 1.936,6.688 1.936,14.784 v 55.792 q -4.928,1.056 -14.96,2.464 -9.856,1.584 -22.352,1.584 -8.272,0 -15.136,-1.584 -6.864,-1.584 -11.792,-5.104 -4.752,-3.52 -7.568,-9.152 -2.64,-5.632 -2.64,-13.904 0,-7.92 2.992,-13.376 3.168,-5.456 8.448,-8.8 5.28,-3.52 12.144,-4.928 7.04,-1.584 14.608,-1.584 3.52,0 7.392,0.528 3.872,0.352 8.272,1.408 v -3.52 q 0,-3.696 -0.88,-7.04 -0.88,-3.344 -3.168,-5.808 -2.112,-2.64 -5.808,-4.048 -3.52,-1.408 -8.976,-1.408 -7.392,0 -13.552,1.056 -6.16,1.056 -10.032,2.464 l -2.64,-17.248 q 4.048,-1.408 11.792,-2.816 7.744,-1.408 16.544,-1.408 z"
         style="font-style:normal;font-variant:normal;font-weight:500;font-stretch:normal;font-size:176px;font-family:Ubuntu;-inkscape-font-specification:'Ubuntu, Medium';font-variant-ligatures:normal;font-variant-caps:normal;font-variant-numeric:normal;font-feature-settings:normal;text-align:center;letter-spacing:0px;writing-mode:lr-tb;text-anchor:middle;stroke-width:1.33333"
         id="path196" />
      <path
         d="m 232.13525,571.95578 q 6.16,-1.76 16.016,-3.344 9.856,-1.584 21.824,-1.584 11.264,0 18.832,3.168 7.568,2.992 11.968,8.624 4.576,5.456 6.336,13.376 1.936,7.744 1.936,17.072 v 51.744 h -21.296 v -48.4 q 0,-7.392 -1.056,-12.496 -0.88,-5.28 -3.168,-8.448 -2.112,-3.344 -5.984,-4.752 -3.696,-1.584 -9.152,-1.584 -4.048,0 -8.448,0.528 -4.4,0.528 -6.512,0.88 v 74.272 h -21.296 z"
         style="font-style:normal;font-variant:normal;font-weight:500;font-stretch:normal;font-size:176px;font-family:Ubuntu;-inkscape-font-specification:'Ubuntu, Medium';font-variant-ligatures:normal;font-variant-caps:normal;font-variant-numeric:normal;font-feature-settings:normal;text-align:center;letter-spacing:0px;writing-mode:lr-tb;text-anchor:middle;stroke-width:1.33333"
         id="path198" />
      <path
         d="m 335.26025,571.95578 q 6.16,-1.76 16.016,-3.344 9.856,-1.584 21.824,-1.584 11.264,0 18.832,3.168 7.568,2.992 11.968,8.624 4.576,5.456 6.336,13.376 1.936,7.744 1.936,17.072 v 51.744 h -21.296 v -48.4 q 0,-7.392 -1.056,-12.496 -0.88,-5.28 -3.168,-8.448 -2.112,-3.344 -5.984,-4.752 -3.696,-1.584 -9.152,-1.584 -4.048,0 -8.448,0.528 -4.4,0.528 -6.512,0.88 v 74.272 h -21.296 z"
         style="font-style:normal;font-variant:normal;font-weight:500;font-stretch:normal;font-size:176px;font-family:Ubuntu;-inkscape-font-specification:'Ubuntu, Medium';font-variant-ligatures:normal;font-variant-caps:normal;font-variant-numeric:normal;font-feature-settings:normal;text-align:center;letter-spacing:0px;writing-mode:lr-tb;text-anchor:middle;stroke-width:1.33333"
         id="path200" />
      <path
         d="m 470.76925,646.05178 q 9.856,0 14.96,-1.056 v -23.584 q -1.76,-0.528 -5.104,-1.056 -3.344,-0.528 -7.392,-0.528 -3.52,0 -7.216,0.528 -3.52,0.528 -6.512,1.936 -2.816,1.408 -4.576,4.048 -1.76,2.464 -1.76,6.336 0,7.568 4.752,10.56 4.752,2.816 12.848,2.816 z m -1.76,-79.376 q 10.56,0 17.776,2.64 7.216,2.64 11.44,7.392 4.4,4.752 6.16,11.616 1.936,6.688 1.936,14.784 v 55.792 q -4.928,1.056 -14.96,2.464 -9.856,1.584 -22.352,1.584 -8.272,0 -15.136,-1.584 -6.864,-1.584 -11.792,-5.104 -4.752,-3.52 -7.568,-9.152 -2.64,-5.632 -2.64,-13.904 0,-7.92 2.992,-13.376 3.168,-5.456 8.448,-8.8 5.28,-3.52 12.144,-4.928 7.04,-1.584 14.608,-1.584 3.52,0 7.392,0.528 3.872,0.352 8.272,1.408 v -3.52 q 0,-3.696 -0.88,-7.04 -0.88,-3.344 -3.168,-5.808 -2.112,-2.64 -5.808,-4.048 -3.52,-1.408 -8.976,-1.408 -7.392,0 -13.552,1.056 -6.16,1.056 -10.032,2.464 l -2.64,-17.248 q 4.048,-1.408 11.792,-2.816 7.744,-1.408 16.544,-1.408 z"
         style="font-style:normal;font-variant:normal;font-weight:500;font-stretch:normal;font-size:176px;font-family:Ubuntu;-inkscape-font-specification:'Ubuntu, Medium';font-variant-ligatures:normal;font-variant-caps:normal;font-variant-numeric:normal;font-feature-settings:normal;text-align:center;letter-spacing:0px;writing-mode:lr-tb;text-anchor:middle;stroke-width:1.33333"
         id="path202" />
      <path
         d="m 593.301,614.72378 q 0,-13.552 -5.456,-21.472 -5.28,-7.92 -16.896,-7.92 -5.28,0 -10.032,1.584 -4.576,1.584 -7.392,3.52 v 52.976 q 2.288,0.528 5.808,1.056 3.696,0.352 8.8,0.352 11.792,0 18.48,-7.92 6.688,-8.096 6.688,-22.176 z m 21.824,0.352 q 0,11.088 -3.344,20.064 -3.168,8.8 -9.328,15.136 -5.984,6.336 -14.608,9.68 -8.624,3.344 -19.536,3.344 -10.56,0 -20.24,-1.584 -9.504,-1.584 -15.84,-3.52 v -130.24 l 21.296,-3.52 v 47.696 q 3.696,-1.936 8.976,-3.52 5.456,-1.584 11.968,-1.584 9.68,0 17.248,3.52 7.744,3.344 12.848,9.68 5.104,6.336 7.744,15.312 2.816,8.8 2.816,19.536 z"
         style="font-style:normal;font-variant:normal;font-weight:500;font-stretch:normal;font-size:176px;font-family:Ubuntu;-inkscape-font-specification:'Ubuntu, Medium';font-variant-ligatures:normal;font-variant-caps:normal;font-variant-numeric:normal;font-feature-settings:normal;text-align:center;letter-spacing:0px;writing-mode:lr-tb;text-anchor:middle;stroke-width:1.33333"
         id="path204" />
      <path
         d="m 658.54475,661.01178 h -21.296 v -92.048 h 21.296 z m 2.288,-118.976 q 0,5.984 -3.872,9.504 -3.872,3.52 -9.152,3.52 -5.456,0 -9.328,-3.52 -3.872,-3.52 -3.872,-9.504 0,-6.16 3.872,-9.68 3.872,-3.52 9.328,-3.52 5.28,0 9.152,3.52 3.872,3.52 3.872,9.68 z"
         style="font-style:normal;font-variant:normal;font-weight:500;font-stretch:normal;font-size:176px;font-family:Ubuntu;-inkscape-font-specification:'Ubuntu, Medium';font-variant-ligatures:normal;font-variant-caps:normal;font-variant-numeric:normal;font-feature-settings:normal;text-align:center;letter-spacing:0px;writing-mode:lr-tb;text-anchor:middle;stroke-width:1.33333"
         id="path206" />
      <path
         d="m 708.5975,645.69978 q 8.448,0 12.32,-1.936 3.872,-2.112 3.872,-7.04 0,-4.576 -4.224,-7.568 -4.048,-2.992 -13.552,-6.512 -5.808,-2.112 -10.736,-4.4 -4.752,-2.464 -8.272,-5.632 -3.52,-3.168 -5.632,-7.568 -1.936,-4.576 -1.936,-11.088 0,-12.672 9.328,-19.888 9.328,-7.392 25.344,-7.392 8.096,0 15.488,1.584 7.392,1.408 11.088,2.816 l -3.872,17.248 q -3.52,-1.584 -8.976,-2.816 -5.456,-1.408 -12.672,-1.408 -6.512,0 -10.56,2.288 -4.048,2.112 -4.048,6.688 0,2.288 0.704,4.048 0.88,1.76 2.816,3.344 1.936,1.408 5.104,2.992 3.168,1.408 7.744,2.992 7.568,2.816 12.848,5.632 5.28,2.64 8.624,6.16 3.52,3.344 5.104,7.744 1.584,4.4 1.584,10.56 0,13.2 -9.856,20.064 -9.68,6.688 -27.808,6.688 -12.144,0 -19.536,-2.112 -7.392,-1.936 -10.384,-3.168 l 3.696,-17.776 q 4.752,1.936 11.264,3.696 6.688,1.76 15.136,1.76 z"
         style="font-style:normal;font-variant:normal;font-weight:500;font-stretch:normal;font-size:176px;font-family:Ubuntu;-inkscape-font-specification:'Ubuntu, Medium';font-variant-ligatures:normal;font-variant-caps:normal;font-variant-numeric:normal;font-feature-settings:normal;text-align:center;letter-spacing:0px;writing-mode:lr-tb;text-anchor:middle;stroke-width:1.33333"
         id="path208" />
    </g>
  </g>
</svg>
