<?xml version="1.0" encoding="UTF-8"?>
<svg width="796.09" height="839.06" version="1.1" viewBox="0 0 796.09 839.06" xml:space="preserve" xmlns="http://www.w3.org/2000/svg"><defs><radialGradient id="radialGradient55" cx="0" cy="0" r="1" gradientTransform="matrix(176.6 0 0 -176.6 961.01 620.81)" gradientUnits="userSpaceOnUse"><stop stop-color="#8cbe69" offset="0"/><stop stop-color="#6d4488" offset="1"/></radialGradient><filter id="filter1643" color-interpolation-filters="sRGB"><feColorMatrix result="fbSourceGraphic" values="0 0 0 0 0 0 0 0 0 0 0 0 0 0 0 -0 -0 -0 1 0 "/><feColorMatrix in="fbSourceGraphic" result="fbSourceGraphicAlpha" values="0 0 0 -1 0 0 0 0 -1 0 0 0 0 -1 0 0 0 0 1 0"/><feColorMatrix in="fbSourceGraphic" values="0 0 0 0 0 0 0 0 0 0 0 0 0 0 0 -0 -0 -0 1 0 "/></filter><filter id="filter1647" color-interpolation-filters="sRGB"><feColorMatrix result="fbSourceGraphic" values="0 0 0 0 0 0 0 0 0 0 0 0 0 0 0 -0 -0 -0 1 0 "/><feColorMatrix in="fbSourceGraphic" result="fbSourceGraphicAlpha" values="0 0 0 -1 0 0 0 0 -1 0 0 0 0 -1 0 0 0 0 1 0"/><feColorMatrix in="fbSourceGraphic" values="0 0 0 0 0 0 0 0 0 0 0 0 0 0 0 -0 -0 -0 1 0 "/></filter><filter id="filter1651" color-interpolation-filters="sRGB"><feColorMatrix result="fbSourceGraphic" values="0 0 0 0 0 0 0 0 0 0 0 0 0 0 0 -0 -0 -0 1 0 "/><feColorMatrix in="fbSourceGraphic" result="fbSourceGraphicAlpha" values="0 0 0 -1 0 0 0 0 -1 0 0 0 0 -1 0 0 0 0 1 0"/><feColorMatrix in="fbSourceGraphic" values="0 0 0 0 0 0 0 0 0 0 0 0 0 0 0 -0 -0 -0 1 0 "/></filter></defs><g display="none"><text transform="scale(1.1166 .89555)" x="172.19475" y="881.08368" display="inline" fill="#6d4488" filter="url(#filter1651)" font-family="'Avenged For Yourself'" font-size="266.67px" letter-spacing="0px" stroke-width="3.4974" style="font-feature-settings:normal;font-variant-caps:normal;font-variant-ligatures:normal;font-variant-numeric:normal"><tspan x="172.19475" y="881.08368" font-family="'Avenged For Yourself'" font-size="193.33px" letter-spacing="38px" stroke-width="3.4974" style="font-feature-settings:normal;font-variant-caps:normal;font-variant-ligatures:normal;font-variant-numeric:normal">DaTa</tspan></text>
<text x="396.9895" y="661.01184" display="inline" fill="#8cbe69" filter="url(#filter1647)" font-family="Ubuntu" font-size="85.333px" font-weight="500" letter-spacing="0px" stroke-width="1.3333" style="font-feature-settings:normal;font-variant-caps:normal;font-variant-ligatures:normal;font-variant-numeric:normal"><tspan x="396.9895" y="661.01184" font-family="Ubuntu" font-size="176px" font-weight="500" letter-spacing="0px" stroke-width="1.3333" text-align="center" text-anchor="middle" style="font-feature-settings:normal;font-variant-caps:normal;font-variant-ligatures:normal;font-variant-numeric:normal">cannabis</tspan></text>
<g transform="matrix(1.3333 0 0 -1.3333 -882.4 1124.7)" display="inline" filter="url(#filter1643)"><path d="m960.32 805.87c-0.481-1.267-1.007-2.518-1.434-3.803-1.944-5.846-3.421-11.892-5.866-17.52-7.444-17.129-15.326-34.084-20.468-52.095-2.566-8.984-4.991-18.051-6.701-27.226-1.538-8.253-2.235-16.687-2.889-25.075-0.591-7.576-1.128-15.219-0.784-22.792 0.63-13.896 1.592-27.805 4.942-41.396 1.953-7.925 3.766-15.892 6.012-23.733 4.568-15.943 10.619-31.332 17.973-46.206 0.402-0.815 0.345-1.856 0.582-3.265-26.089 18.895-51.629 37.392-77.167 55.888-0.212-0.286-0.425-0.571-0.637-0.857 6.07-4.911 12.127-9.838 18.216-14.727 6.091-4.89 12.196-9.761 18.326-14.603 6.234-4.923 12.584-9.701 18.735-14.725 5.847-4.777 12.331-8.833 17.404-14.594-30.716 5.668-58.864 17.015-83.14 36.57-22.635 18.233-39.147 41.364-52.003 68.374 50.621-10.113 91.158-34.169 119.81-76.963-1.215 4.866-2.693 9.495-4.15 14.132-0.867 2.76-0.944 6.196-2.684 8.178-5.933 6.757-12.184 13.29-18.797 19.382-12.088 11.135-25.913 19.879-40.79 26.709-9.621 4.418-19.721 7.854-29.759 11.28-6.732 2.297-13.775 3.663-20.602 5.705-6.464 1.934-12.827 4.207-19.709 6.489-0.408-0.662-0.96-1.557-1.318-2.138 3.429-5.627 6.848-10.667 9.695-16.012 8.442-15.847 17.069-31.608 28.897-45.217 7.344-8.449 15.098-16.647 23.436-24.096 10.377-9.271 22.046-16.993 34.786-22.675 11.166-4.978 22.702-9.144 34.145-13.483 3.817-1.447 7.853-2.323 11.789-3.46-0.044-0.366-0.088-0.733-0.133-1.1-17.58-0.918-35.162-1.836-52.744-2.754 7e-3 -0.362 0.014-0.724 0.021-1.087h55.375c-39.883-18.086-79.57-17.547-119.15 0.616 18.549 8.803 38.066 13.464 58.939 14.248-3.461 1.868-6.765 3.159-9.466 5.235-3.45 2.652-7.047 1.975-10.735 1.557-1.377-0.156-2.727-0.597-4.077-0.953-7.892-2.085-15.885-3.864-23.645-6.363-8.986-2.894-17.767-6.424-26.637-9.682-2.791-1.024-5.579-2.055-8.585-3.162 0.404-1.452 0.674-2.417 0.726-2.605 8.715-2.956 16.957-5.251 24.791-8.52 13.594-5.675 27.651-9.818 42.195-11.217 11.617-1.118 23.513-1.027 35.14 0.067 14.681 1.382 28.859 5.604 42.445 11.54 2.781 1.214 5.649 2.229 8.477 3.336 0.198-0.281 0.395-0.563 0.592-0.844-4.552-6.15-9.106-12.299-13.659-18.448 0.223-0.17 0.446-0.341 0.67-0.511 4.723 5.45 9.444 10.899 14.351 16.56 2.173-12.299-31.503-49.782-44.122-49.299 5.71 14.288 14.202 26.431 25.88 36.472-3.765-0.618-7.285-1.885-10.901-2.289-3.413-0.382-5.417-2.173-7.41-4.621-10.82-13.283-17.053-28.81-22.268-45.066 0.463-0.503 1-1.088 1.545-1.682 13.691 6.544 27.421 12.748 38.895 22.85 11.481 10.107 19.871 22.473 26.576 36.21 0.495-0.818 0.73-1.477 0.685-2.116-0.628-9.193-6.216-71.832-6.237-72.661h15.539c-0.555 1.15-6.945 71.34-6.945 73.971l1.075 0.717c12.299-29.886 35.904-47.115 65.284-58.831 0.172 1.013 0.844 2.35 0.498 3.326-4.798 13.556-9.603 27.15-18.435 38.756-2.531 3.328-4.188 7.725-9.047 8.772-4.204 0.905-8.382 1.934-13.31 3.079 15.269-14.904 27.48-32.896 26.011-38.007-22.006 11.883-46.314 39.928-43.809 50.912 5.539-6.428 10.967-12.728 16.393-19.028 0.198 0.162 0.394 0.325 0.59 0.488-5.149 6.894-10.298 13.788-15.448 20.682 0.182 0.234 0.364 0.468 0.544 0.703 1.366-0.536 2.737-1.06 4.097-1.61 4.324-1.746 8.527-3.919 12.99-5.168 9.787-2.737 19.593-5.747 29.599-7.263 9.905-1.501 20.064-1.639 30.119-1.758 9.991-0.118 19.767 1.916 29.351 4.727 5.638 1.653 11.307 3.224 16.886 5.06 9.288 3.058 18.527 6.263 27.751 9.505 1.226 0.43 2.248 1.438 4.227 2.75-2.205 1.216-3.37 2.075-4.676 2.532-2.614 0.912-5.362 1.454-7.957 2.414-8.278 3.067-16.471 6.372-24.773 9.37-10.815 3.904-21.983 6.35-32.896 7.607-4.935-2.637-9.385-5.016-14.055-7.511 3.666-0.221 7.056-0.338 10.428-0.644 16.2-1.471 31.556-6.377 46.803-11.668 1.028-0.356 1.771-1.535 2.933-2.595-55.6-23.295-96.775-11.238-120.62 0.32h55.023c0 0.27-0.01 0.538-0.011 0.807-17.448 0.907-34.896 1.814-52.344 2.72-0.037 0.315-0.073 0.629-0.109 0.944 0.658 0.291 1.292 0.668 1.978 0.861 2.929 0.82 5.884 1.547 8.81 2.378 17.513 4.975 34.087 12.132 49.62 21.627 17.108 10.458 31.718 23.724 44.357 39.296 11.106 13.684 19.966 28.716 28.127 44.255 3.075 5.857 6.88 11.332 10.288 16.875-1.314 2.482-3.079 2.323-5.132 1.274-2.076-1.059-4.134-2.268-6.345-2.917-7.392-2.171-14.92-3.891-22.262-6.211-9.772-3.089-19.542-6.262-29.078-10.002-7.261-2.847-14.42-6.177-21.156-10.097-12.014-6.994-23.538-14.831-33.318-24.827-6.177-6.314-13.852-11.508-15.97-21.075-1.172-5.291-3.172-10.398-4.798-15.587 14.342 19.971 30.971 37.444 51.946 50.445 20.866 12.936 43.421 21.358 68.185 26.068-13.571-27.693-30.571-51.343-54.202-69.86-23.697-18.57-50.827-29.189-79.827-35.555-0.242 0.389-0.484 0.779-0.726 1.168 24.042 19.049 48.083 38.099 72.125 57.148-0.272 0.345-0.546 0.689-0.819 1.034-25.584-18.568-51.17-37.136-76.755-55.705-0.233 0.192-0.466 0.383-0.699 0.575 0.367 1.036 0.684 2.094 1.107 3.106 4.319 10.323 9.016 20.505 12.897 30.988 5.3 14.312 9.557 28.97 11.772 44.127 1.437 9.83 3.313 19.651 3.861 29.538 0.541 9.805 0.117 19.725-0.712 29.524-0.875 10.346-2.357 20.678-4.236 30.894-3.549 19.307-9.916 37.777-17.5 55.862-4.849 11.566-9.336 23.285-13.975 34.939-0.544 1.369-1.021 2.764-1.529 4.147-0.376-0.043-0.752-0.086-1.127-0.129m-29.272-138.45c0.84 40.029 12.077 77.314 29.898 113.33 38.03-75.696 40.109-151.31 3.276-227.47-0.812 44.012-1.625 88.024-2.436 132.04-0.282 0.011-0.566 0.022-0.847 0.033-0.281-2.764-0.735-5.523-0.813-8.293-0.513-18.58-1.042-37.16-1.379-55.745-0.389-21.495-0.585-42.994-0.874-64.493-0.014-1-0.129-1.997-0.588-3.032-16.904 36.025-27.078 73.572-26.237 113.63" fill="url(#radialGradient55)"/></g></g><g><g><g transform="scale(1.1166 .89555)" fill="#6d4488" stroke-width="3.4974" style="font-feature-settings:normal;font-variant-caps:normal;font-variant-ligatures:normal;font-variant-numeric:normal" aria-label="DaTa"><path d="m172.19 748.92h28.32q28.32 0 28.32 28.32v75.521q0 28.32-28.32 28.32h-28.32zm18.88 113.28h9.4401q9.4401 0 9.4401-9.4401v-75.521q0-9.4401-9.4401-9.4401h-9.4401z" style="font-feature-settings:normal;font-variant-caps:normal;font-variant-ligatures:normal;font-variant-numeric:normal"/><path d="m299.78 843.32h10.856l3.3984 18.88h-17.653l-3.304 18.88h-19.163l23.223-132.16h24.355l23.223 132.16h-19.163l-16.237-91.947z" style="font-feature-settings:normal;font-variant-caps:normal;font-variant-ligatures:normal;font-variant-numeric:normal"/><path d="m417.36 767.8v113.28h-18.88v-113.28h-18.88v-18.88h56.641v18.88z" style="font-feature-settings:normal;font-variant-caps:normal;font-variant-ligatures:normal;font-variant-numeric:normal"/><path d="m496.24 843.32h10.856l3.3984 18.88h-17.653l-3.304 18.88h-19.163l23.223-132.16h24.355l23.223 132.16h-19.163l-16.237-91.947z" style="font-feature-settings:normal;font-variant-caps:normal;font-variant-ligatures:normal;font-variant-numeric:normal"/></g></g><g fill="#8cbe69" stroke-width="1.3333" style="font-feature-settings:normal;font-variant-caps:normal;font-variant-ligatures:normal;font-variant-numeric:normal" aria-label="cannabis"><path d="m50 615.08q0-10.208 3.168-19.008 3.168-8.976 8.976-15.488 5.984-6.512 14.432-10.208t19.008-3.696q13.024 0 24.64 4.752l-4.576 17.424q-3.696-1.584-8.448-2.64-4.576-1.056-9.856-1.056-12.496 0-19.008 7.92-6.512 7.744-6.512 22 0 13.728 6.16 21.824 6.16 7.92 20.768 7.92 5.456 0 10.736-1.056t9.152-2.64l2.992 17.6q-3.52 1.76-10.736 3.168-7.04 1.408-14.608 1.408-11.792 0-20.592-3.52-8.624-3.696-14.432-10.032-5.632-6.512-8.448-15.312-2.816-8.976-2.816-19.36z" style="font-feature-settings:normal;font-variant-caps:normal;font-variant-ligatures:normal;font-variant-numeric:normal"/><path d="m170.68 646.05q9.856 0 14.96-1.056v-23.584q-1.76-0.528-5.104-1.056t-7.392-0.528q-3.52 0-7.216 0.528-3.52 0.528-6.512 1.936-2.816 1.408-4.576 4.048-1.76 2.464-1.76 6.336 0 7.568 4.752 10.56 4.752 2.816 12.848 2.816zm-1.76-79.376q10.56 0 17.776 2.64t11.44 7.392q4.4 4.752 6.16 11.616 1.936 6.688 1.936 14.784v55.792q-4.928 1.056-14.96 2.464-9.856 1.584-22.352 1.584-8.272 0-15.136-1.584t-11.792-5.104q-4.752-3.52-7.568-9.152-2.64-5.632-2.64-13.904 0-7.92 2.992-13.376 3.168-5.456 8.448-8.8 5.28-3.52 12.144-4.928 7.04-1.584 14.608-1.584 3.52 0 7.392 0.528 3.872 0.352 8.272 1.408v-3.52q0-3.696-0.88-7.04t-3.168-5.808q-2.112-2.64-5.808-4.048-3.52-1.408-8.976-1.408-7.392 0-13.552 1.056t-10.032 2.464l-2.64-17.248q4.048-1.408 11.792-2.816t16.544-1.408z" style="font-feature-settings:normal;font-variant-caps:normal;font-variant-ligatures:normal;font-variant-numeric:normal"/><path d="m232.14 571.96q6.16-1.76 16.016-3.344t21.824-1.584q11.264 0 18.832 3.168 7.568 2.992 11.968 8.624 4.576 5.456 6.336 13.376 1.936 7.744 1.936 17.072v51.744h-21.296v-48.4q0-7.392-1.056-12.496-0.88-5.28-3.168-8.448-2.112-3.344-5.984-4.752-3.696-1.584-9.152-1.584-4.048 0-8.448 0.528t-6.512 0.88v74.272h-21.296z" style="font-feature-settings:normal;font-variant-caps:normal;font-variant-ligatures:normal;font-variant-numeric:normal"/><path d="m335.26 571.96q6.16-1.76 16.016-3.344t21.824-1.584q11.264 0 18.832 3.168 7.568 2.992 11.968 8.624 4.576 5.456 6.336 13.376 1.936 7.744 1.936 17.072v51.744h-21.296v-48.4q0-7.392-1.056-12.496-0.88-5.28-3.168-8.448-2.112-3.344-5.984-4.752-3.696-1.584-9.152-1.584-4.048 0-8.448 0.528t-6.512 0.88v74.272h-21.296z" style="font-feature-settings:normal;font-variant-caps:normal;font-variant-ligatures:normal;font-variant-numeric:normal"/><path d="m470.77 646.05q9.856 0 14.96-1.056v-23.584q-1.76-0.528-5.104-1.056t-7.392-0.528q-3.52 0-7.216 0.528-3.52 0.528-6.512 1.936-2.816 1.408-4.576 4.048-1.76 2.464-1.76 6.336 0 7.568 4.752 10.56 4.752 2.816 12.848 2.816zm-1.76-79.376q10.56 0 17.776 2.64t11.44 7.392q4.4 4.752 6.16 11.616 1.936 6.688 1.936 14.784v55.792q-4.928 1.056-14.96 2.464-9.856 1.584-22.352 1.584-8.272 0-15.136-1.584t-11.792-5.104q-4.752-3.52-7.568-9.152-2.64-5.632-2.64-13.904 0-7.92 2.992-13.376 3.168-5.456 8.448-8.8 5.28-3.52 12.144-4.928 7.04-1.584 14.608-1.584 3.52 0 7.392 0.528 3.872 0.352 8.272 1.408v-3.52q0-3.696-0.88-7.04t-3.168-5.808q-2.112-2.64-5.808-4.048-3.52-1.408-8.976-1.408-7.392 0-13.552 1.056t-10.032 2.464l-2.64-17.248q4.048-1.408 11.792-2.816t16.544-1.408z" style="font-feature-settings:normal;font-variant-caps:normal;font-variant-ligatures:normal;font-variant-numeric:normal"/><path d="m593.3 614.72q0-13.552-5.456-21.472-5.28-7.92-16.896-7.92-5.28 0-10.032 1.584-4.576 1.584-7.392 3.52v52.976q2.288 0.528 5.808 1.056 3.696 0.352 8.8 0.352 11.792 0 18.48-7.92 6.688-8.096 6.688-22.176zm21.824 0.352q0 11.088-3.344 20.064-3.168 8.8-9.328 15.136-5.984 6.336-14.608 9.68t-19.536 3.344q-10.56 0-20.24-1.584-9.504-1.584-15.84-3.52v-130.24l21.296-3.52v47.696q3.696-1.936 8.976-3.52 5.456-1.584 11.968-1.584 9.68 0 17.248 3.52 7.744 3.344 12.848 9.68t7.744 15.312q2.816 8.8 2.816 19.536z" style="font-feature-settings:normal;font-variant-caps:normal;font-variant-ligatures:normal;font-variant-numeric:normal"/><path d="m658.54 661.01h-21.296v-92.048h21.296zm2.288-118.98q0 5.984-3.872 9.504t-9.152 3.52q-5.456 0-9.328-3.52t-3.872-9.504q0-6.16 3.872-9.68t9.328-3.52q5.28 0 9.152 3.52t3.872 9.68z" style="font-feature-settings:normal;font-variant-caps:normal;font-variant-ligatures:normal;font-variant-numeric:normal"/><path d="m708.6 645.7q8.448 0 12.32-1.936 3.872-2.112 3.872-7.04 0-4.576-4.224-7.568-4.048-2.992-13.552-6.512-5.808-2.112-10.736-4.4-4.752-2.464-8.272-5.632t-5.632-7.568q-1.936-4.576-1.936-11.088 0-12.672 9.328-19.888 9.328-7.392 25.344-7.392 8.096 0 15.488 1.584 7.392 1.408 11.088 2.816l-3.872 17.248q-3.52-1.584-8.976-2.816-5.456-1.408-12.672-1.408-6.512 0-10.56 2.288-4.048 2.112-4.048 6.688 0 2.288 0.704 4.048 0.88 1.76 2.816 3.344 1.936 1.408 5.104 2.992 3.168 1.408 7.744 2.992 7.568 2.816 12.848 5.632 5.28 2.64 8.624 6.16 3.52 3.344 5.104 7.744t1.584 10.56q0 13.2-9.856 20.064-9.68 6.688-27.808 6.688-12.144 0-19.536-2.112-7.392-1.936-10.384-3.168l3.696-17.776q4.752 1.936 11.264 3.696 6.688 1.76 15.136 1.76z" style="font-feature-settings:normal;font-variant-caps:normal;font-variant-ligatures:normal;font-variant-numeric:normal"/></g><g transform="matrix(1.3333 0 0 -1.3333 -882.4 1124.7)"><path d="m960.32 805.87c-0.481-1.267-1.007-2.518-1.434-3.803-1.944-5.846-3.421-11.892-5.866-17.52-7.444-17.129-15.326-34.084-20.468-52.095-2.566-8.984-4.991-18.051-6.701-27.226-1.538-8.253-2.235-16.687-2.889-25.075-0.591-7.576-1.128-15.219-0.784-22.792 0.63-13.896 1.592-27.805 4.942-41.396 1.953-7.925 3.766-15.892 6.012-23.733 4.568-15.943 10.619-31.332 17.973-46.206 0.402-0.815 0.345-1.856 0.582-3.265-26.089 18.895-51.629 37.392-77.167 55.888-0.212-0.286-0.425-0.571-0.637-0.857 6.07-4.911 12.127-9.838 18.216-14.727 6.091-4.89 12.196-9.761 18.326-14.603 6.234-4.923 12.584-9.701 18.735-14.725 5.847-4.777 12.331-8.833 17.404-14.594-30.716 5.668-58.864 17.015-83.14 36.57-22.635 18.233-39.147 41.364-52.003 68.374 50.621-10.113 91.158-34.169 119.81-76.963-1.215 4.866-2.693 9.495-4.15 14.132-0.867 2.76-0.944 6.196-2.684 8.178-5.933 6.757-12.184 13.29-18.797 19.382-12.088 11.135-25.913 19.879-40.79 26.709-9.621 4.418-19.721 7.854-29.759 11.28-6.732 2.297-13.775 3.663-20.602 5.705-6.464 1.934-12.827 4.207-19.709 6.489-0.408-0.662-0.96-1.557-1.318-2.138 3.429-5.627 6.848-10.667 9.695-16.012 8.442-15.847 17.069-31.608 28.897-45.217 7.344-8.449 15.098-16.647 23.436-24.096 10.377-9.271 22.046-16.993 34.786-22.675 11.166-4.978 22.702-9.144 34.145-13.483 3.817-1.447 7.853-2.323 11.789-3.46-0.044-0.366-0.088-0.733-0.133-1.1-17.58-0.918-35.162-1.836-52.744-2.754 7e-3 -0.362 0.014-0.724 0.021-1.087h55.375c-39.883-18.086-79.57-17.547-119.15 0.616 18.549 8.803 38.066 13.464 58.939 14.248-3.461 1.868-6.765 3.159-9.466 5.235-3.45 2.652-7.047 1.975-10.735 1.557-1.377-0.156-2.727-0.597-4.077-0.953-7.892-2.085-15.885-3.864-23.645-6.363-8.986-2.894-17.767-6.424-26.637-9.682-2.791-1.024-5.579-2.055-8.585-3.162 0.404-1.452 0.674-2.417 0.726-2.605 8.715-2.956 16.957-5.251 24.791-8.52 13.594-5.675 27.651-9.818 42.195-11.217 11.617-1.118 23.513-1.027 35.14 0.067 14.681 1.382 28.859 5.604 42.445 11.54 2.781 1.214 5.649 2.229 8.477 3.336 0.198-0.281 0.395-0.563 0.592-0.844-4.552-6.15-9.106-12.299-13.659-18.448 0.223-0.17 0.446-0.341 0.67-0.511 4.723 5.45 9.444 10.899 14.351 16.56 2.173-12.299-31.503-49.782-44.122-49.299 5.71 14.288 14.202 26.431 25.88 36.472-3.765-0.618-7.285-1.885-10.901-2.289-3.413-0.382-5.417-2.173-7.41-4.621-10.82-13.283-17.053-28.81-22.268-45.066 0.463-0.503 1-1.088 1.545-1.682 13.691 6.544 27.421 12.748 38.895 22.85 11.481 10.107 19.871 22.473 26.576 36.21 0.495-0.818 0.73-1.477 0.685-2.116-0.628-9.193-6.216-71.832-6.237-72.661h15.539c-0.555 1.15-6.945 71.34-6.945 73.971l1.075 0.717c12.299-29.886 35.904-47.115 65.284-58.831 0.172 1.013 0.844 2.35 0.498 3.326-4.798 13.556-9.603 27.15-18.435 38.756-2.531 3.328-4.188 7.725-9.047 8.772-4.204 0.905-8.382 1.934-13.31 3.079 15.269-14.904 27.48-32.896 26.011-38.007-22.006 11.883-46.314 39.928-43.809 50.912 5.539-6.428 10.967-12.728 16.393-19.028 0.198 0.162 0.394 0.325 0.59 0.488-5.149 6.894-10.298 13.788-15.448 20.682 0.182 0.234 0.364 0.468 0.544 0.703 1.366-0.536 2.737-1.06 4.097-1.61 4.324-1.746 8.527-3.919 12.99-5.168 9.787-2.737 19.593-5.747 29.599-7.263 9.905-1.501 20.064-1.639 30.119-1.758 9.991-0.118 19.767 1.916 29.351 4.727 5.638 1.653 11.307 3.224 16.886 5.06 9.288 3.058 18.527 6.263 27.751 9.505 1.226 0.43 2.248 1.438 4.227 2.75-2.205 1.216-3.37 2.075-4.676 2.532-2.614 0.912-5.362 1.454-7.957 2.414-8.278 3.067-16.471 6.372-24.773 9.37-10.815 3.904-21.983 6.35-32.896 7.607-4.935-2.637-9.385-5.016-14.055-7.511 3.666-0.221 7.056-0.338 10.428-0.644 16.2-1.471 31.556-6.377 46.803-11.668 1.028-0.356 1.771-1.535 2.933-2.595-55.6-23.295-96.775-11.238-120.62 0.32h55.023c0 0.27-0.01 0.538-0.011 0.807-17.448 0.907-34.896 1.814-52.344 2.72-0.037 0.315-0.073 0.629-0.109 0.944 0.658 0.291 1.292 0.668 1.978 0.861 2.929 0.82 5.884 1.547 8.81 2.378 17.513 4.975 34.087 12.132 49.62 21.627 17.108 10.458 31.718 23.724 44.357 39.296 11.106 13.684 19.966 28.716 28.127 44.255 3.075 5.857 6.88 11.332 10.288 16.875-1.314 2.482-3.079 2.323-5.132 1.274-2.076-1.059-4.134-2.268-6.345-2.917-7.392-2.171-14.92-3.891-22.262-6.211-9.772-3.089-19.542-6.262-29.078-10.002-7.261-2.847-14.42-6.177-21.156-10.097-12.014-6.994-23.538-14.831-33.318-24.827-6.177-6.314-13.852-11.508-15.97-21.075-1.172-5.291-3.172-10.398-4.798-15.587 14.342 19.971 30.971 37.444 51.946 50.445 20.866 12.936 43.421 21.358 68.185 26.068-13.571-27.693-30.571-51.343-54.202-69.86-23.697-18.57-50.827-29.189-79.827-35.555-0.242 0.389-0.484 0.779-0.726 1.168 24.042 19.049 48.083 38.099 72.125 57.148-0.272 0.345-0.546 0.689-0.819 1.034-25.584-18.568-51.17-37.136-76.755-55.705-0.233 0.192-0.466 0.383-0.699 0.575 0.367 1.036 0.684 2.094 1.107 3.106 4.319 10.323 9.016 20.505 12.897 30.988 5.3 14.312 9.557 28.97 11.772 44.127 1.437 9.83 3.313 19.651 3.861 29.538 0.541 9.805 0.117 19.725-0.712 29.524-0.875 10.346-2.357 20.678-4.236 30.894-3.549 19.307-9.916 37.777-17.5 55.862-4.849 11.566-9.336 23.285-13.975 34.939-0.544 1.369-1.021 2.764-1.529 4.147-0.376-0.043-0.752-0.086-1.127-0.129m-29.272-138.45c0.84 40.029 12.077 77.314 29.898 113.33 38.03-75.696 40.109-151.31 3.276-227.47-0.812 44.012-1.625 88.024-2.436 132.04-0.282 0.011-0.566 0.022-0.847 0.033-0.281-2.764-0.735-5.523-0.813-8.293-0.513-18.58-1.042-37.16-1.379-55.745-0.389-21.495-0.585-42.994-0.874-64.493-0.014-1-0.129-1.997-0.588-3.032-16.904 36.025-27.078 73.572-26.237 113.63" fill="url(#radialGradient55)"/><flowRoot transform="matrix(.75 0 0 -.75 0 1080)" fill="#000000" font-family="sans-serif" font-size="40px" letter-spacing="0px" word-spacing="0px" style="line-height:1.25" xml:space="preserve"><flowRegion><rect x="917.78" y="1148.8" width="76.87" height="58.235"/></flowRegion><flowPara/></flowRoot></g></g></svg>
